# This file uses centimeters as units for non-parametric coordinates.

mtllib Crystal3.mtl
g default
v -0.310730 -0.000000 0.587449
v 0.644113 -0.000000 0.587449
v -0.459393 3.626698 0.329729
v 0.792775 3.626698 0.329729
v -0.459393 3.626698 -0.999348
v 0.792775 3.626698 -0.999348
v -0.310730 -0.000000 -0.426040
v 0.644113 -0.000000 -0.426040
v 0.202354 4.145793 -1.253692
v 0.192122 -0.000000 -0.604174
v 0.192122 -0.000000 0.719020
v 0.202354 4.145793 0.586976
v -0.826368 4.145793 -0.384656
v -0.541462 -0.000000 0.045159
v 0.192122 -0.000000 0.045159
v 0.874844 -0.000000 0.045159
v 1.159750 4.145793 -0.384656
v 0.202354 5.229727 -0.384656
vt 0.375000 0.000000
vt 0.625000 0.000000
vt 0.375000 0.250000
vt 0.625000 0.250000
vt 0.375000 0.500000
vt 0.625000 0.500000
vt 0.375000 0.750000
vt 0.625000 0.750000
vt 0.375000 1.000000
vt 0.625000 1.000000
vt 0.875000 0.000000
vt 0.875000 0.250000
vt 0.125000 0.000000
vt 0.125000 0.250000
vt 0.504489 0.500000
vt 0.504489 0.750000
vt 0.504489 0.000000
vt 0.504489 1.000000
vt 0.504489 0.250000
vt 0.244089 0.250000
vt 0.375000 0.380911
vt 0.244089 0.000000
vt 0.375000 0.869089
vt 0.504489 0.869089
vt 0.625000 0.869089
vt 0.755911 0.000000
vt 0.625000 0.380911
vt 0.755911 0.250000
vt 0.504489 0.380911
vn -0.332929 0.041311 0.942047
vn -0.000666 0.042982 0.999076
vn -0.008282 0.042998 0.999041
vn -0.332929 0.041311 0.942047
vn -0.586860 0.519161 0.621342
vn 0.003297 0.637638 0.770329
vn -0.013609 0.999688 0.020931
vn -0.752143 0.658995 -0.002623
vn -0.282927 -0.153981 -0.946701
vn -0.008551 -0.161191 -0.986886
vn 0.000048 -0.161217 -0.986919
vn -0.282927 -0.153981 -0.946701
vn 0.000000 -1.000000 0.000000
vn 0.000000 -1.000000 0.000000
vn 0.000000 -1.000000 0.000000
vn 0.000000 -1.000000 0.000000
vn 0.905037 -0.012878 0.425139
vn 0.997671 -0.062387 0.027579
vn 0.997090 -0.068921 -0.032576
vn 0.905037 -0.012878 0.425139
vn -0.997671 -0.062387 0.027579
vn -0.905037 -0.012878 0.425139
vn -0.905037 -0.012878 0.425139
vn -0.997090 -0.068921 -0.032576
vn 0.312303 -0.153869 -0.937438
vn 0.312303 -0.153869 -0.937439
vn 0.000000 -1.000000 0.000000
vn 0.000000 -1.000000 0.000000
vn 0.366260 0.039133 0.929689
vn 0.366260 0.039133 0.929689
vn 0.617465 0.498562 0.608418
vn 0.781044 0.624469 -0.002959
vn -0.891706 -0.106516 -0.439903
vn -0.891706 -0.106516 -0.439903
vn 0.000000 -1.000000 0.000000
vn 0.000000 -1.000000 0.000000
vn 0.000000 -1.000000 0.000000
vn 0.891706 -0.106516 -0.439903
vn 0.891706 -0.106516 -0.439903
vn 0.003523 0.587074 -0.809526
vn 0.593496 0.469314 -0.653840
vn -0.563215 0.488153 -0.666705
s 1
g pCube5
usemtl initialShadingGroup
f 1/1/1 11/17/2 12/19/3 3/3/4
s 2
f 3/3/5 12/19/6 18/29/7 13/21/8
s 3
f 5/5/9 9/15/10 10/16/11 7/7/12
s 4
f 14/23/13 15/24/14 11/18/15 1/9/16
s 5
f 2/2/17 16/26/18 17/28/19 4/4/20
s 6
f 14/22/21 1/1/22 3/3/23 13/20/24
s 3
f 9/15/10 6/6/25 8/8/26 10/16/11
s 4
f 11/18/15 15/24/14 16/25/27 2/10/28
s 1
f 12/19/3 11/17/2 2/2/29 4/4/30
s 2
f 18/29/7 12/19/6 4/4/31 17/27/32
s 6
f 7/13/33 14/22/21 13/20/24 5/14/34
s 4
f 7/7/35 10/16/36 15/24/14 14/23/13
f 16/25/27 15/24/14 10/16/36 8/8/37
s 5
f 17/28/19 16/26/18 8/11/38 6/12/39
s 2
f 9/15/40 18/29/7 17/27/32 6/6/41
f 13/21/8 18/29/7 9/15/40 5/5/42
