# This file uses centimeters as units for non-parametric coordinates.

mtllib mango.mtl
g default
v -0.293800 0.124444 0.230002
v 0.284016 0.118852 0.230002
v -0.185642 1.191267 0.148050
v 0.185642 1.191267 0.148050
v -0.185642 1.191267 -0.148050
v 0.185642 1.191267 -0.148050
v -0.293800 0.118852 -0.230808
v 0.284016 0.147815 -0.230808
v -0.381506 0.826562 -0.304253
v -0.381506 0.837129 0.304253
v 0.381506 0.830651 0.304253
v 0.381506 0.860471 -0.304253
v -0.381506 0.391127 -0.304253
v -0.381506 0.391127 0.304253
v 0.381506 0.391127 0.304253
v 0.381506 0.405138 -0.304253
v -0.306725 1.001696 -0.194602
v -0.306725 1.001696 0.194602
v 0.181301 1.001696 0.194602
v 0.181301 1.001696 -0.194602
v -0.281518 1.191267 -0.005184
v -0.438112 0.971728 -0.006913
v -0.537606 0.870823 -0.013368
v -0.543767 0.391127 -0.007026
v -0.416677 0.124444 -0.005723
v 0.376367 0.142769 -0.010526
v 0.503457 0.389635 -0.013368
v 0.503457 0.870823 -0.013368
v 0.312688 0.971728 -0.006913
v 0.182989 1.176037 -0.003370
v -0.038198 1.191267 0.224511
v -0.032565 1.333385 -0.004420
v -0.038198 1.191267 -0.224511
v -0.113648 0.971728 -0.299383
v -0.098492 0.870823 -0.481735
v -0.098492 0.389635 -0.481735
v -0.079478 0.141427 -0.365212
v 0.024713 -0.043601 -0.013368
v -0.079478 0.123261 0.361891
v -0.098492 0.389635 0.478414
v -0.098492 0.870823 0.478414
v -0.115363 0.971728 0.299383
vt 0.375000 0.000000
vt 0.625000 0.000000
vt 0.375000 0.250000
vt 0.625000 0.250000
vt 0.375000 0.500000
vt 0.625000 0.500000
vt 0.375000 0.750000
vt 0.625000 0.750000
vt 0.375000 1.000000
vt 0.625000 1.000000
vt 0.875000 0.000000
vt 0.875000 0.250000
vt 0.125000 0.000000
vt 0.125000 0.250000
vt 0.125000 0.164858
vt 0.375000 0.585142
vt 0.375000 0.164858
vt 0.625000 0.164858
vt 0.625000 0.585142
vt 0.875000 0.164858
vt 0.125000 0.081769
vt 0.375000 0.668231
vt 0.375000 0.081769
vt 0.625000 0.081769
vt 0.625000 0.668231
vt 0.875000 0.081769
vt 0.125000 0.206122
vt 0.375000 0.543878
vt 0.375000 0.206122
vt 0.625000 0.206122
vt 0.625000 0.543878
vt 0.875000 0.206122
vt 0.247114 0.250000
vt 0.375000 0.377886
vt 0.247114 0.206122
vt 0.247114 0.164858
vt 0.247114 0.081769
vt 0.247114 0.000000
vt 0.375000 0.872114
vt 0.625000 0.872114
vt 0.752886 0.000000
vt 0.752886 0.081769
vt 0.752886 0.164858
vt 0.752886 0.206122
vt 0.625000 0.377886
vt 0.752886 0.250000
vt 0.483039 0.250000
vt 0.483039 0.377886
vt 0.483039 0.500000
vt 0.483039 0.543878
vt 0.483039 0.585142
vt 0.483039 0.668231
vt 0.483039 0.750000
vt 0.483039 0.872114
vt 0.483039 0.000000
vt 0.483039 1.000000
vt 0.483039 0.081769
vt 0.483039 0.164858
vt 0.483039 0.206122
vn -0.377953 0.610251 0.696237
vn -0.035478 0.679098 0.733189
vn 0.058802 0.313359 0.947813
vn -0.395361 0.432147 0.810518
vn -0.377369 0.835339 0.399752
vn 0.025764 0.928089 0.371466
vn 0.012193 0.999925 0.001291
vn -0.412835 0.910795 0.004427
vn -0.394292 0.430405 -0.811964
vn 0.057551 0.314038 -0.947664
vn -0.063675 0.688625 -0.722317
vn -0.388593 0.604183 -0.695671
vn -0.289119 -0.957291 -0.002119
vn 0.068759 -0.997187 -0.029837
vn -0.032894 -0.956059 0.291323
vn -0.287251 -0.921747 0.260517
vn 0.683646 0.671545 0.285754
vn 0.630827 0.775305 0.030981
vn 0.941761 0.336275 0.002416
vn 0.902839 0.318843 0.288481
vn -0.767975 0.640468 -0.003944
vn -0.712177 0.572989 0.405571
vn -0.728422 0.540529 0.420987
vn -0.801237 0.598347 -0.000643
vn -0.990094 -0.140337 0.004467
vn -0.882949 -0.128421 0.451563
vn -0.883013 0.118211 0.454218
vn -0.986904 0.161295 -0.002238
vn -0.520248 -0.128542 0.844286
vn -0.002980 -0.134437 0.990918
vn 0.012566 0.217517 0.975976
vn -0.513930 0.177113 0.839349
vn 0.926150 -0.140657 0.349946
vn 0.988457 -0.151449 -0.003953
vn 0.962615 0.270873 0.000118
vn 0.898748 0.242537 0.365278
vn -0.523257 0.174986 -0.834016
vn 0.015916 0.213917 -0.976722
vn 0.001197 -0.136863 -0.990589
vn -0.522785 -0.130310 -0.842446
vn -0.903698 -0.428158 -0.003252
vn -0.817474 -0.387494 0.426127
vn -0.486450 -0.379108 0.787174
vn 0.007882 -0.397930 0.917382
vn 0.855625 -0.413049 0.311924
vn 0.895864 -0.444328 0.000414
vn -0.001338 -0.414897 -0.909867
vn -0.478317 -0.385979 -0.788818
vn -0.696864 0.570791 -0.434255
vn -0.716325 0.538554 -0.443664
vn -0.869089 0.113873 -0.481370
vn -0.871313 -0.135474 -0.471657
vn -0.811972 -0.384509 -0.439152
vn -0.267286 -0.917652 -0.294063
vn -0.002613 -0.934702 -0.355423
vn 0.828866 -0.424360 -0.364555
vn 0.911665 -0.136258 -0.387686
vn 0.886492 0.268633 -0.376786
vn 0.671280 0.693138 -0.262568
vn 0.896258 0.323800 -0.303109
vn 0.028169 0.921760 -0.386736
vn -0.376267 0.827151 -0.417427
vn 0.366699 0.881659 0.297000
vn 0.385620 0.922657 0.001030
vn 0.368447 0.877104 -0.308115
vn 0.311113 0.214138 -0.925934
vn 0.239794 0.646188 -0.724528
vn 0.338319 0.159213 -0.927465
vn 0.347168 -0.112808 -0.930993
vn 0.329867 -0.376516 -0.865693
vn 0.308918 -0.865756 -0.393747
vn 0.317231 -0.947289 -0.044812
vn 0.285920 -0.909308 0.302339
vn 0.317468 -0.357342 0.878363
vn 0.338425 -0.115944 0.933823
vn 0.338477 0.152949 0.928461
vn 0.264231 0.619818 0.738923
vn 0.310318 0.213140 0.926431
s 1
g pCube61
usemtl initialShadingGroup
f 18/29/1 42/59/2 31/47/3 3/3/4
s 2
f 3/3/5 31/47/6 32/48/7 21/34/8
s 3
f 5/5/9 33/49/10 34/50/11 17/28/12
s 4
f 25/39/13 38/54/14 39/56/15 1/9/16
s 5
f 19/30/17 29/44/18 30/46/19 4/4/20
s 6
f 22/35/21 18/29/22 3/3/23 21/33/24
f 24/37/25 14/23/26 10/17/27 23/36/28
s 1
f 14/23/29 40/57/30 41/58/31 10/17/32
s 5
f 15/24/33 27/42/34 28/43/35 11/18/36
s 3
f 9/16/37 35/51/38 36/52/39 13/22/40
s 6
f 25/38/41 1/1/42 14/23/26 24/37/25
s 1
f 1/1/43 39/55/44 40/57/30 14/23/29
s 5
f 2/2/45 26/41/46 27/42/34 15/24/33
s 3
f 13/22/40 36/52/39 37/53/47 7/7/48
s 6
f 23/36/28 10/17/27 18/29/22 22/35/21
s 1
f 10/17/32 41/58/31 42/59/2 18/29/1
s 5
f 11/18/36 28/43/35 29/44/18 19/30/17
s 3
f 17/28/12 34/50/11 35/51/38 9/16/37
s 6
f 17/27/49 22/35/21 21/33/24 5/14/50
f 9/15/51 23/36/28 22/35/21 17/27/49
f 13/21/52 24/37/25 23/36/28 9/15/51
f 7/13/53 25/38/41 24/37/25 13/21/52
s 4
f 7/7/54 37/53/55 38/54/14 25/39/13
s 5
f 27/42/34 26/41/46 8/11/56 16/26/57
f 28/43/35 27/42/34 16/26/57 12/20/58
f 29/44/18 28/43/35 12/20/58 20/32/59
f 30/46/19 29/44/18 20/32/59 6/12/60
s 2
f 21/34/8 32/48/7 33/49/61 5/5/62
f 31/47/6 4/4/63 30/45/64 32/48/7
f 33/49/61 32/48/7 30/45/64 6/6/65
s 3
f 34/50/11 33/49/10 6/6/66 20/31/67
f 35/51/38 34/50/11 20/31/67 12/19/68
f 36/52/39 35/51/38 12/19/68 16/25/69
f 37/53/47 36/52/39 16/25/69 8/8/70
s 4
f 38/54/14 37/53/55 8/8/71 26/40/72
f 39/56/15 38/54/14 26/40/72 2/10/73
s 1
f 40/57/30 39/55/44 2/2/74 15/24/75
f 41/58/31 40/57/30 15/24/75 11/18/76
f 42/59/2 41/58/31 11/18/76 19/30/77
f 31/47/3 42/59/2 19/30/77 4/4/78
